<svg width="63" height="63" viewBox="0 0 63 63" fill="none" xmlns="http://www.w3.org/2000/svg">
<path d="M55.125 48.5626H38.9025C38.5105 47.4617 37.8785 46.4618 37.0521 45.6354C36.2258 44.8091 35.2259 44.177 34.125 43.7851V35.4376H42.4463C45.2257 35.5289 47.9423 34.598 50.0816 32.8212C52.221 31.0444 53.6347 28.5449 54.0551 25.7958C54.4755 23.0468 53.8736 20.239 52.3631 17.904C50.8526 15.5689 48.5385 13.8687 45.8587 13.1251C44.455 10.0147 42.0789 7.4443 39.0882 5.80084C36.0975 4.15737 32.6539 3.52972 29.2757 4.01232C25.8974 4.49492 22.7673 6.06168 20.3564 8.47681C17.9455 10.8919 16.3842 14.0248 15.9075 17.4038C13.7713 18.0029 11.9239 19.3547 10.7068 21.2097C9.48957 23.0646 8.98474 25.2974 9.28551 27.4956C9.58628 29.6937 10.6723 31.7088 12.3431 33.1686C14.0138 34.6285 16.1564 35.4344 18.375 35.4376H28.875V43.7851C27.7741 44.177 26.7742 44.8091 25.9479 45.6354C25.1215 46.4618 24.4895 47.4617 24.0975 48.5626H7.875C7.17881 48.5626 6.51113 48.8391 6.01884 49.3314C5.52656 49.8237 5.25 50.4914 5.25 51.1876C5.25 51.8838 5.52656 52.5515 6.01884 53.0437C6.51113 53.536 7.17881 53.8126 7.875 53.8126H24.0975C24.6493 55.3329 25.6558 56.6464 26.9802 57.5746C28.3046 58.5029 29.8827 59.0008 31.5 59.0008C33.1173 59.0008 34.6954 58.5029 36.0198 57.5746C37.3442 56.6464 38.3507 55.3329 38.9025 53.8126H55.125C55.8212 53.8126 56.4889 53.536 56.9812 53.0437C57.4734 52.5515 57.75 51.8838 57.75 51.1876C57.75 50.4914 57.4734 49.8237 56.9812 49.3314C56.4889 48.8391 55.8212 48.5626 55.125 48.5626ZM18.375 30.1876C17.3307 30.1876 16.3292 29.7727 15.5908 29.0343C14.8523 28.2959 14.4375 27.2944 14.4375 26.2501C14.4375 25.2058 14.8523 24.2043 15.5908 23.4658C16.3292 22.7274 17.3307 22.3126 18.375 22.3126C19.0712 22.3126 19.7389 22.036 20.2312 21.5437C20.7234 21.0514 21 20.3838 21 19.6876C20.9931 17.1952 21.8731 14.7817 23.4824 12.8786C25.0918 10.9755 27.3257 9.7069 29.7846 9.29971C32.2434 8.89253 34.767 9.37329 36.9039 10.656C39.0409 11.9387 40.6518 13.9398 41.4487 16.3013C41.5988 16.7524 41.8685 17.1543 42.2291 17.464C42.5897 17.7738 43.0277 17.9798 43.4962 18.0601C44.9171 18.297 46.2072 19.032 47.1355 20.1335C48.0638 21.2349 48.5696 22.6309 48.5625 24.0713C48.5556 25.6913 47.909 27.243 46.7635 28.3885C45.6179 29.5341 44.0663 30.1807 42.4463 30.1876H18.375ZM31.5 53.8126C30.9808 53.8126 30.4733 53.6586 30.0416 53.3702C29.6099 53.0817 29.2735 52.6718 29.0748 52.1921C28.8761 51.7125 28.8242 51.1847 28.9254 50.6755C29.0267 50.1663 29.2767 49.6985 29.6438 49.3314C30.011 48.9643 30.4787 48.7143 30.9879 48.613C31.4971 48.5117 32.0249 48.5637 32.5045 48.7624C32.9842 48.9611 33.3942 49.2975 33.6826 49.7292C33.971 50.1609 34.125 50.6684 34.125 51.1876C34.125 51.8838 33.8484 52.5515 33.3562 53.0437C32.8639 53.536 32.1962 53.8126 31.5 53.8126Z" fill="#1D4ED8"/>
</svg>
